<?xml version="1.0" standalone="no"?>
<!DOCTYPE svg PUBLIC "-//W3C//DTD SVG 20010904//EN"
 "http://www.w3.org/TR/2001/REC-SVG-20010904/DTD/svg10.dtd">
<svg version="1.0" xmlns="http://www.w3.org/2000/svg"
 width="472.000000pt" height="472.000000pt" viewBox="0 0 472.000000 472.000000"
 preserveAspectRatio="xMidYMid meet">
<metadata>
Created by potrace 1.11, written by Peter Selinger 2001-2013
</metadata>
<g transform="translate(0.000000,472.000000) scale(0.100000,-0.100000)"
fill="#000000" stroke="none">
<path d="M0 2360 l0 -2360 2360 0 2360 0 0 2360 0 2360 -2360 0 -2360 0 0
-2360z m2955 1322 c26 -16 41 -48 118 -251 127 -331 166 -446 277 -806 138
-445 344 -1045 382 -1115 54 -98 60 -94 -302 -216 -168 -57 -320 -103 -338
-103 -56 -1 -82 35 -139 204 -29 83 -57 169 -63 193 l-11 42 -301 -2 -300 -3
-67 -165 c-37 -91 -75 -182 -85 -203 -18 -37 -59 -67 -91 -67 -29 0 -260 102
-365 161 -151 86 -145 80 -125 120 10 17 39 88 66 156 l49 124 -45 77 c-55 97
-93 196 -104 274 -7 50 -5 63 10 82 17 22 28 23 171 30 84 4 156 10 159 14 11
12 206 513 259 667 91 260 245 631 277 668 27 31 111 64 256 102 156 41 263
46 312 17z"/>
<path d="M2627 2610 c-4 -8 -38 -106 -76 -217 l-70 -203 126 0 c98 0 124 3
120 13 -5 12 -66 284 -85 377 -5 27 -12 39 -15 30z"/>
</g>
</svg>
